<svg width="130" height="17" viewBox="0 0 130 17" fill="none" xmlns="http://www.w3.org/2000/svg"><path d="M9.76 16.38h3.477V.31H8.094C7.5 4.07 6.88 7.546 6.571 9.95h-.072C6.261 7.69 5.738 3.666 5.214.31H0v16.07h3.262v-5.023c0-2.785-.072-6.047-.143-7.928h.119c.428 3.238 1.095 8.666 1.666 12.951H7.88c.738-4.118 1.405-9.57 1.88-12.927h.096a371.044 371.044 0 00-.095 7.785v5.142zm8.913 0v-4.19h-3.595v4.19h3.595zm2.278 0h3.69V3.332h3.143V.309h-10v3.024h3.167v13.046z" fill="#096FC8"/><path d="M33.292 16.38h3.666v-6.286h1.453c3.166 0 4.952-1.571 4.952-4.928 0-3.309-2-4.857-4.786-4.857h-5.285v16.07zm3.666-13.31h1.048c1.024 0 1.666.571 1.666 2.071 0 1.524-.476 2.143-1.761 2.143h-.953V3.071zM50.244 0c-3.69 0-5.523 2.452-5.523 8.166 0 5.928 1.642 8.523 5.38 8.523 4 0 5.595-2.548 5.595-8.452C55.696 2.643 54.029 0 50.244 0zm-.048 2.928c1.334 0 1.643 1.405 1.643 5.238 0 4.07-.31 5.618-1.643 5.618-1.261 0-1.618-1.666-1.618-5.618 0-3.762.357-5.238 1.618-5.238zm11.96 6.881c1.404 0 1.785.5 1.785 2.404v.548c0 1.57.072 3 .262 3.618h3.571c-.095-.714-.166-1.714-.166-3.5v-.57c0-2.31-.596-3.334-1.857-3.905.976-.381 2.07-1.429 2.07-3.643 0-2.928-1.594-4.452-4.69-4.452h-5.427v16.07h3.642V9.81h.81zm-.81-6.762h1.095c1.215 0 1.69.595 1.69 1.905 0 1.571-.523 2.071-1.928 2.071h-.857V3.047zM71.96 16.38h3.69V3.332h3.142V.309h-9.999v3.024h3.167v13.046zm8.272 0h3.666V9.76h4.714V6.786H83.9V3.309h5.047v-3h-8.714v16.07zM95.789 0c-3.69 0-5.523 2.452-5.523 8.166 0 5.928 1.642 8.523 5.38 8.523 4 0 5.595-2.548 5.595-8.452 0-5.594-1.667-8.237-5.452-8.237zm-.048 2.928c1.334 0 1.643 1.405 1.643 5.238 0 4.07-.31 5.618-1.643 5.618-1.261 0-1.618-1.666-1.618-5.618 0-3.762.357-5.238 1.618-5.238zm7.508 13.452h8.451l.334-3h-5.095V.31h-3.69v16.07zM113.316.31v16.07h3.69V.31h-3.69zM124.548 0c-3.69 0-5.523 2.452-5.523 8.166 0 5.928 1.643 8.523 5.38 8.523 4 0 5.595-2.548 5.595-8.452C130 2.643 128.334 0 124.548 0zm-.047 2.928c1.333 0 1.642 1.405 1.642 5.238 0 4.07-.309 5.618-1.642 5.618-1.262 0-1.619-1.666-1.619-5.618 0-3.762.357-5.238 1.619-5.238z" fill="#1A1A1A"/></svg>