<svg width="109" height="109" viewBox="0 0 109 109" fill="none" xmlns="http://www.w3.org/2000/svg"><path d="M98.313 57.744c-.025.295-.01.555.042.78.057.226.148.416.271.571a1.3 1.3 0 00.474.372c.193.089.412.143.655.164.23.02.443.002.637-.054.193-.056.362-.15.505-.282a1.41 1.41 0 00.345-.52 2.47 2.47 0 00.174-.767l.102-1.202-3.102-.264-.103 1.202zm4.347.37c-.049.578-.16 1.072-.331 1.483a2.93 2.93 0 01-.657.998 2.236 2.236 0 01-.925.535 3 3 0 01-1.13.11 3.105 3.105 0 01-1.135-.308 2.4 2.4 0 01-.844-.704 2.924 2.924 0 01-.496-1.102c-.104-.43-.132-.927-.084-1.489l.102-1.201-3.043-.26.137-1.608 8.645.736-.239 2.81zm-7.164 8.869l3.064-.23c.138-.014.299-.025.483-.03.185-.007.383-.009.594-.007-.182-.106-.352-.21-.51-.313a7.386 7.386 0 01-.4-.282l-2.479-1.793-.752 2.655zm-3.929 1.85l.34-1.201a.543.543 0 01.192-.301.677.677 0 01.308-.119l1.88-.141.979-3.458-1.527-1.106a.576.576 0 01-.192-.247.52.52 0 01-.016-.36l.343-1.213 7.418 5.65-.448 1.581-9.277.915zm.279 8.881l-3.098-1.65a4.643 4.643 0 01.033-1.58 5.555 5.555 0 01.554-1.513c.333-.625.731-1.14 1.196-1.545.463-.402.964-.69 1.501-.866a4.041 4.041 0 011.68-.166c.583.061 1.16.243 1.728.546a4.901 4.901 0 011.434 1.124c.38.443.652.927.816 1.454.162.53.207 1.091.137 1.684-.071.592-.27 1.194-.594 1.804a5.44 5.44 0 01-.537.83 4.805 4.805 0 01-.607.642 3.543 3.543 0 01-.65.469 4.268 4.268 0 01-.688.307l-.429-.752a.453.453 0 01-.058-.35c.033-.114.12-.211.257-.292l.388-.242c.129-.081.256-.18.383-.299a3.606 3.606 0 00.753-1.006c.201-.378.32-.754.357-1.129a2.462 2.462 0 00-.131-1.069 2.785 2.785 0 00-.588-.952 3.786 3.786 0 00-1.019-.767 3.946 3.946 0 00-1.274-.44 2.892 2.892 0 00-1.156.064 2.64 2.64 0 00-.985.535 3.371 3.371 0 00-.758.977c-.15.282-.255.55-.314.805a4.218 4.218 0 00-.103.781l1.388.74.513-.965a.346.346 0 01.19-.177.306.306 0 01.23.027l.805.429-1.354 2.542zm-.193 5.426l-1.86-1.526-1.925 2.346-.96-.788 1.926-2.346-1.897-1.557-2.444 2.977-.997-.818 3.471-4.23 6.707 5.504-3.472 4.23-.992-.814 2.444-2.978zM79.028 94.548l2.132-1.515-4.258-5.991 1.316-.935 4.258 5.99 2.132-1.515.768 1.08-5.58 3.967-.768-1.08zm-10.866 1.845a4.833 4.833 0 01-.41-1.751 4.117 4.117 0 01.26-1.641c.195-.516.496-.984.903-1.403a4.73 4.73 0 011.522-1.017 4.712 4.712 0 011.778-.408 4.148 4.148 0 011.646.302c.51.211.969.523 1.378.935.41.415.741.915.993 1.499.252.584.388 1.165.408 1.745a4.18 4.18 0 01-.262 1.649c-.2.517-.503.984-.912 1.4-.407.42-.911.76-1.514 1.02a4.78 4.78 0 01-1.202.349c-.396.062-.78.07-1.151.027a3.772 3.772 0 01-1.068-.278 4.007 4.007 0 01-.958-.553 4.285 4.285 0 01-.798-.82 4.981 4.981 0 01-.613-1.055zm1.515-.654c.189.437.417.803.683 1.097.268.298.563.522.884.67.322.15.666.22 1.034.214.364-.004.74-.09 1.13-.259.389-.168.712-.383.968-.647.253-.261.438-.561.553-.899.112-.336.152-.703.119-1.103a3.952 3.952 0 00-.33-1.25 4.01 4.01 0 00-.686-1.102 2.75 2.75 0 00-.882-.665 2.435 2.435 0 00-1.03-.208 2.988 2.988 0 00-1.136.261c-.39.168-.71.383-.963.645a2.365 2.365 0 00-.556.893 2.75 2.75 0 00-.12 1.098c.033.4.144.818.332 1.255zm-6.812 1.858c-.29.056-.537.14-.739.253a1.49 1.49 0 00-.475.417 1.301 1.301 0 00-.228.558 1.98 1.98 0 00.021.674c.045.228.12.427.227.598.107.171.243.307.41.409.166.102.364.165.593.19.23.029.492.014.786-.043l1.184-.23-.595-3.057-1.184.23zm.834 4.281c-.57.111-1.075.14-1.518.088a2.909 2.909 0 01-1.14-.359 2.24 2.24 0 01-.767-.743 2.982 2.982 0 01-.414-1.056 3.107 3.107 0 01-.015-1.177 2.4 2.4 0 01.446-1.004c.227-.301.535-.56.925-.78.385-.217.855-.38 1.408-.487l1.184-.23-.584-2.998 1.585-.309 1.658 8.516-2.768.539zm-12.77-3.539a2.496 2.496 0 00-.78.05 1.49 1.49 0 00-.568.278 1.3 1.3 0 00-.366.478 1.955 1.955 0 00-.156.657 1.75 1.75 0 00.061.636c.058.193.154.36.288.502.134.142.308.256.523.339.214.088.47.143.77.165l1.203.089.228-3.106-1.203-.088zm-.32 4.35c-.578-.043-1.074-.147-1.487-.314a2.897 2.897 0 01-1.005-.645 2.236 2.236 0 01-.546-.919 2.977 2.977 0 01-.122-1.128c.03-.418.129-.798.294-1.14.165-.336.397-.62.694-.85a2.938 2.938 0 011.097-.51c.429-.109.925-.142 1.487-.101l1.203.088.224-3.046 1.61.119-.636 8.652-2.813-.206zm-8.869-7.062l.264 3.062c.017.137.03.298.037.482.008.185.013.383.014.594.103-.183.205-.354.306-.513.1-.156.193-.29.278-.404l1.765-2.5-2.664-.721zm-1.894-3.907l1.205.326c.135.036.236.1.303.188a.677.677 0 01.122.306l.163 1.878 3.468.94 1.089-1.539a.575.575 0 01.245-.194.52.52 0 01.36-.02l1.216.329-5.564 7.481-1.587-.43-1.02-9.266zm-8.839.404l1.603-3.122a4.645 4.645 0 011.58.01 5.559 5.559 0 011.522.531c.63.324 1.15.715 1.562 1.174.409.457.705.953.889 1.488.18.533.244 1.092.19 1.677a4.71 4.71 0 01-.52 1.735 4.9 4.9 0 01-1.103 1.45 4.07 4.07 0 01-1.442.839 4.062 4.062 0 01-1.681.161c-.593-.062-1.198-.25-1.813-.567a5.428 5.428 0 01-.837-.524 4.726 4.726 0 01-.651-.598 3.547 3.547 0 01-.479-.644 4.281 4.281 0 01-.317-.682l.745-.44a.453.453 0 01.35-.063c.114.031.212.115.295.252l.248.384c.082.128.184.254.304.38a3.5 3.5 0 00.423.371c.161.124.36.246.594.366.381.196.76.31 1.134.34.372.03.728-.02 1.067-.147a2.78 2.78 0 00.943-.601c.29-.274.54-.618.752-1.03.227-.442.367-.869.422-1.281.05-.411.022-.796-.081-1.155a2.638 2.638 0 00-.55-.977 3.368 3.368 0 00-.988-.744 3.301 3.301 0 00-.81-.301 4.217 4.217 0 00-.782-.092l-.719 1.399.972.499c.092.047.152.11.18.187a.305.305 0 01-.024.23l-.416.811-2.562-1.316zm-5.447-.154l1.506-1.877-2.368-1.9.778-.97 2.367 1.901 1.537-1.914-3.005-2.41.808-1.007 4.267 3.425-5.43 6.766-4.268-3.425.804-1.001 3.004 2.411zM14.03 79.492l1.538 2.116 5.944-4.324.95 1.305-5.944 4.324 1.538 2.115-1.072.78-4.027-5.536 1.072-.78zm-1.952-10.798a4.835 4.835 0 011.746-.429 4.12 4.12 0 011.644.24c.518.19.989.486 1.413.888.42.404.765.908 1.033 1.51.267.6.41 1.191.428 1.774a4.148 4.148 0 01-.283 1.65 4.194 4.194 0 01-.92 1.387c-.41.415-.906.752-1.487 1.01a4.738 4.738 0 01-1.74.427 4.182 4.182 0 01-1.653-.243 4.075 4.075 0 01-1.41-.896 4.637 4.637 0 01-1.036-1.502 4.782 4.782 0 01-.363-1.198 4.21 4.21 0 01-.04-1.152c.037-.37.125-.727.266-1.07a4.04 4.04 0 01.543-.964c.226-.298.496-.567.81-.807a4.981 4.981 0 011.049-.625zm.67 1.508a3.956 3.956 0 00-1.089.695 2.742 2.742 0 00-.66.891 2.332 2.332 0 00-.203 1.036c.009.364.1.74.272 1.127.172.388.392.708.658.962a2.4 2.4 0 00.905.543c.337.108.705.143 1.104.106a3.946 3.946 0 001.246-.345 4.01 4.01 0 001.095-.697c.291-.27.51-.566.655-.89.14-.325.205-.669.197-1.033a2.984 2.984 0 00-.274-1.132 2.94 2.94 0 00-.656-.956 2.366 2.366 0 00-.9-.546A2.748 2.748 0 0014 69.855a4.01 4.01 0 00-1.252.347zm-1.958-6.839a2.495 2.495 0 00-.262-.736c-.12-.2-.26-.357-.422-.47a1.3 1.3 0 00-.56-.222 1.97 1.97 0 00-.675.029 1.75 1.75 0 00-.595.233c-.17.109-.304.247-.404.415a1.41 1.41 0 00-.184.595 2.54 2.54 0 00.052.786l.244 1.18 3.05-.63-.244-1.18zm-4.272.882c-.117-.568-.152-1.073-.105-1.516.048-.443.163-.824.346-1.143.183-.32.428-.579.734-.777a2.977 2.977 0 011.052-.426 3.105 3.105 0 011.176-.028c.37.066.706.211 1.009.435.303.223.567.528.79.915.222.383.39.85.504 1.403l.244 1.18 2.99-.617.327 1.58-8.496 1.756-.57-2.762zm3.383-12.66a2.494 2.494 0 00-.06-.779 1.491 1.491 0 00-.284-.564 1.301 1.301 0 00-.482-.36 1.953 1.953 0 00-.658-.15 1.747 1.747 0 00-.636.07c-.192.06-.358.157-.499.293a1.41 1.41 0 00-.333.526 2.516 2.516 0 00-.156.772l-.074 1.204 3.108.192.074-1.204zm-4.354-.269c.036-.579.135-1.076.297-1.49.162-.415.373-.753.634-1.013.26-.26.564-.446.912-.557.347-.115.723-.16 1.126-.135.42.026.8.12 1.143.281.339.162.625.39.86.685.234.295.408.658.521 1.09.114.428.154.923.119 1.486l-.075 1.204 3.049.188-.1 1.611-8.66-.535.174-2.815zm6.959-9.06l-3.059.3a6.395 6.395 0 01-.482.042c-.184.01-.382.016-.594.02a7.886 7.886 0 01.924.573l2.52 1.737.69-2.672zm3.885-1.938l-.312 1.208a.544.544 0 01-.185.305.677.677 0 01-.305.126l-1.876.184-.9 3.479 1.55 1.07a.575.575 0 01.198.244c.05.108.059.228.025.36l-.316 1.22-7.544-5.48.412-1.59 9.253-1.126zm-.58-8.708l3.14 1.569a4.66 4.66 0 01.009 1.58 5.558 5.558 0 01-.515 1.527c-.317.633-.702 1.158-1.156 1.575a4.342 4.342 0 01-1.479.905 4.04 4.04 0 01-1.674.21 4.707 4.707 0 01-1.741-.502 4.9 4.9 0 01-1.463-1.086 4.07 4.07 0 01-.854-1.433 4.062 4.062 0 01-.18-1.68c.055-.593.238-1.2.547-1.819.157-.315.329-.596.515-.842.188-.25.384-.47.59-.658.204-.193.417-.355.639-.486.222-.13.448-.239.678-.325l.449.74a.453.453 0 01.067.35c-.03.114-.114.213-.25.298l-.38.252a2.518 2.518 0 00-.376.309c-.122.118-.244.26-.368.426a3.965 3.965 0 00-.359.599c-.191.383-.3.762-.327 1.138-.025.372.028.727.159 1.065.13.338.334.65.612.936.277.286.623.533 1.038.74.444.222.872.358 1.286.408.411.045.796.013 1.153-.094.356-.113.68-.3.972-.561.288-.263.532-.595.732-.996a3.3 3.3 0 00.292-.813c.052-.256.08-.517.083-.784l-1.406-.702-.488.977a.346.346 0 01-.185.182.306.306 0 01-.231-.021l-.816-.408 1.287-2.576zm.139-5.57l1.892 1.486 1.874-2.389.977.767-1.874 2.388 1.93 1.515 2.379-3.03 1.014.796-3.378 4.305-6.825-5.356 3.378-4.305 1.01.793-2.378 3.03zm12.356-11.7l-2.098 1.563 4.388 5.896-1.294.963-4.389-5.896-2.098 1.562-.792-1.064 5.492-4.087.791 1.064zm10.7-2.049c.265.578.414 1.159.448 1.742a4.117 4.117 0 01-.222 1.646 4.07 4.07 0 01-.872 1.423 4.723 4.723 0 01-1.498 1.05 4.713 4.713 0 01-1.769.448 4.15 4.15 0 01-1.653-.265c-.514-.2-.98-.5-1.398-.903a4.835 4.835 0 01-1.026-1.477 4.786 4.786 0 01-.447-1.736 4.18 4.18 0 01.225-1.654 4.08 4.08 0 01.88-1.42 4.64 4.64 0 011.491-1.053 4.78 4.78 0 011.194-.376 4.191 4.191 0 011.15-.053c.372.032.73.117 1.074.254.347.131.67.309.97.532.3.223.573.49.817.8.247.31.459.657.636 1.042zm-1.5.688a3.953 3.953 0 00-.708-1.082 2.743 2.743 0 00-.898-.65 2.334 2.334 0 00-1.038-.19 2.939 2.939 0 00-1.124.284c-.386.176-.704.4-.954.668a2.405 2.405 0 00-.533.911 2.742 2.742 0 00-.094 1.106c.04.395.16.809.359 1.242.198.432.434.795.71 1.087.272.288.571.503.896.645.326.136.671.198 1.035.185.368-.015.744-.11 1.13-.287.385-.177.701-.399.948-.666.25-.269.43-.57.535-.906a2.75 2.75 0 00.096-1.1 4.01 4.01 0 00-.36-1.247zm6.599-2.014c.29-.064.533-.155.732-.274.198-.122.353-.264.464-.429a1.3 1.3 0 00.213-.563 1.979 1.979 0 00-.04-.674 1.75 1.75 0 00-.242-.591 1.245 1.245 0 00-.42-.398 1.411 1.411 0 00-.599-.175 2.516 2.516 0 00-.784.064l-1.178.262.677 3.04 1.177-.262zm-.948-4.258c.567-.126 1.071-.168 1.515-.128.443.04.826.15 1.149.328.322.179.585.42.787.723.207.302.354.65.442 1.045.091.41.107.802.046 1.176a2.4 2.4 0 01-.419 1.015c-.218.307-.52.575-.903.803-.38.228-.845.403-1.395.526l-1.177.262.663 2.981-1.575.35-1.885-8.468 2.752-.613zm12.882 3.157c.295.014.555-.009.778-.07.224-.064.41-.161.561-.29.155-.132.273-.294.355-.486.082-.197.13-.416.142-.66a1.75 1.75 0 00-.077-.635 1.246 1.246 0 00-.3-.495 1.41 1.41 0 00-.53-.327 2.517 2.517 0 00-.773-.147l-1.205-.06-.156 3.11 1.205.06zm.218-4.357c.58.03 1.078.122 1.494.28.417.157.757.364 1.02.621.264.258.453.56.568.906.119.346.168.721.148 1.125-.022.42-.11.801-.268 1.146-.158.34-.382.63-.675.867a2.926 2.926 0 01-1.084.534c-.426.12-.921.164-1.485.136l-1.204-.06-.153 3.05-1.612-.081.435-8.665 2.816.141zm9.283 6.86l-.335-3.055a6.321 6.321 0 01-.048-.482 14.865 14.865 0 01-.026-.593c-.1.185-.198.359-.295.52a7.367 7.367 0 01-.268.41l-1.708 2.539 2.68.66zm1.982 3.863l-1.212-.3a.543.543 0 01-.307-.18.677.677 0 01-.13-.304l-.205-1.873-3.489-.861-1.053 1.563a.574.574 0 01-.24.2.519.519 0 01-.36.029l-1.224-.302 5.393-7.606 1.596.394 1.231 9.24zm8.683-.69l-1.534 3.157a4.667 4.667 0 01-1.58.026 5.551 5.551 0 01-1.532-.498c-.637-.31-1.167-.69-1.589-1.139a4.344 4.344 0 01-.92-1.468 4.04 4.04 0 01-.229-1.672c.04-.585.2-1.168.482-1.747a4.9 4.9 0 011.07-1.474 4.07 4.07 0 011.423-.87 4.062 4.062 0 011.678-.199c.594.049 1.203.224 1.825.527.317.154.6.322.848.505.253.185.474.38.664.583.196.202.36.413.493.633.133.22.244.446.333.675l-.736.457a.453.453 0 01-.348.07c-.115-.028-.215-.11-.3-.245l-.257-.378a2.523 2.523 0 00-.313-.373 3.491 3.491 0 00-.43-.362 3.955 3.955 0 00-.603-.353 3.015 3.015 0 00-1.141-.314 2.462 2.462 0 00-1.064.17 2.786 2.786 0 00-.93.623c-.282.28-.525.629-.728 1.046a3.944 3.944 0 00-.393 1.29c-.04.412-.005.796.107 1.153.117.354.307.676.572.965.266.285.6.525 1.004.72.287.14.56.235.816.284.256.049.518.074.784.074l.687-1.414-.982-.477a.346.346 0 01-.185-.183.306.306 0 01.02-.23l.398-.821 2.59 1.258zm5.625.106l-1.464 1.908 2.409 1.848-.756.986-2.409-1.848-1.494 1.947 3.056 2.345-.785 1.023-4.341-3.33 5.28-6.884 4.342 3.33-.781 1.02-3.056-2.345zm11.838 12.237l-1.585-2.081-5.847 4.453-.978-1.284 5.848-4.453-1.585-2.082 1.055-.803 4.147 5.447-1.055.803zm2.175 10.703a4.832 4.832 0 01-1.737.468 4.117 4.117 0 01-1.648-.204c-.522-.178-1-.463-1.433-.856a4.73 4.73 0 01-1.067-1.487 4.712 4.712 0 01-.468-1.763 4.15 4.15 0 01.247-1.656c.194-.516.49-.985.888-1.408.401-.424.89-.771 1.465-1.043a4.783 4.783 0 011.73-.465 4.179 4.179 0 011.658.206c.523.182 1 .47 1.43.864.432.393.789.886 1.07 1.479.187.398.317.795.388 1.19.076.393.097.777.066 1.15-.028.371-.109.73-.242 1.076a4.008 4.008 0 01-.521.976c-.22.303-.484.578-.792.825a4.98 4.98 0 01-1.034.648zm-.705-1.492a3.96 3.96 0 001.074-.72c.289-.278.502-.58.64-.906a2.34 2.34 0 00.18-1.04 2.94 2.94 0 00-.297-1.12 2.988 2.988 0 00-.68-.947 2.4 2.4 0 00-.916-.522 2.748 2.748 0 00-1.107-.082 3.955 3.955 0 00-1.238.372c-.43.204-.79.444-1.079.722a2.748 2.748 0 00-.635.904c-.132.328-.19.673-.173 1.037.018.367.118.743.299 1.126.181.383.406.697.677.941.271.248.575.423.911.525.34.101.707.13 1.101.084a4.01 4.01 0 001.243-.374zm2.092 6.641c.067.288.161.53.282.729a1.5 1.5 0 00.434.459c.17.112.359.18.566.206.211.024.436.008.673-.047.226-.053.422-.136.589-.25.166-.112.297-.254.393-.425.096-.17.151-.37.167-.6.02-.23-.004-.492-.073-.784l-.275-1.174-3.032.712.276 1.174zm4.246-.997c.133.565.181 1.07.146 1.513a2.915 2.915 0 01-.315 1.153c-.175.324-.413.59-.713.795-.3.21-.647.362-1.04.454-.41.096-.801.116-1.176.06a2.4 2.4 0 01-1.02-.408 2.925 2.925 0 01-.813-.894c-.233-.377-.413-.84-.542-1.389l-.275-1.174-2.974.698-.368-1.572 8.446-1.981.644 2.745z" fill="#1A1A1A" fill-opacity=".2"/></svg>