<svg width="120" height="120" viewBox="0 0 120 120" fill="none" xmlns="http://www.w3.org/2000/svg"><path d="M112.727 65.87a.575.575 0 01-.174-.169.34.34 0 01-.041-.2.555.555 0 01.109-.27c.071-.091.149-.202.234-.333.085-.13.164-.285.237-.464.076-.175.123-.387.14-.634a1.855 1.855 0 00-.043-.592 1.221 1.221 0 00-.192-.44.912.912 0 00-.329-.276 1.114 1.114 0 00-.432-.115.775.775 0 00-.52.133c-.144.106-.27.25-.379.43a4.258 4.258 0 00-.302.623 27.07 27.07 0 01-.296.72 6.216 6.216 0 01-.351.715 2.448 2.448 0 01-.475.61 1.9 1.9 0 01-.666.405c-.259.098-.569.135-.928.11a2.977 2.977 0 01-1.087-.28 2.519 2.519 0 01-.851-.649 2.794 2.794 0 01-.533-.981 3.525 3.525 0 01-.127-1.29c.019-.276.066-.545.14-.809a4.32 4.32 0 01.281-.756 4.28 4.28 0 01.407-.663 3.33 3.33 0 01.507-.542l.74.526a.468.468 0 01.126.165.374.374 0 01.046.208.563.563 0 01-.148.315c-.088.11-.187.241-.298.394a3.407 3.407 0 00-.314.537c-.095.21-.153.465-.174.764-.032.459.052.822.25 1.088.201.267.506.414.913.442a.863.863 0 00.569-.134c.151-.102.281-.243.39-.424.113-.18.212-.389.296-.623.085-.235.175-.473.272-.715.097-.242.21-.479.338-.71a2.37 2.37 0 01.482-.61c.192-.175.426-.312.702-.409.279-.093.616-.125 1.011-.098.315.022.618.105.909.25.29.148.543.35.758.606.215.255.38.564.495.925.115.36.157.768.125 1.223-.035.51-.148.976-.337 1.396-.19.42-.439.771-.747 1.055l-.733-.454zm-6.581 7.551a.321.321 0 01-.153.205l-.817.462a3.488 3.488 0 01-.678-1.497c-.109-.551-.081-1.178.084-1.879.147-.627.386-1.166.718-1.618a3.83 3.83 0 011.194-1.07 4.06 4.06 0 011.559-.497 5.324 5.324 0 011.801.127 4.939 4.939 0 011.669.712 4.14 4.14 0 011.167 1.173c.295.46.487.97.578 1.529.095.56.069 1.15-.076 1.77-.144.615-.374 1.136-.688 1.564a3.996 3.996 0 01-1.08 1.034l-.607-.697a.46.46 0 01-.094-.151.336.336 0 01-.006-.211.415.415 0 01.089-.17c.05-.055.107-.113.171-.176.068-.062.142-.135.224-.219.081-.084.16-.184.237-.302.081-.116.157-.257.228-.42.074-.16.138-.35.19-.573a2.68 2.68 0 00.039-1.087 2.27 2.27 0 00-.395-.943c-.2-.286-.47-.534-.811-.745a3.998 3.998 0 00-1.212-.482 3.85 3.85 0 00-1.314-.099 2.92 2.92 0 00-1.064.33c-.307.17-.565.395-.775.675-.205.28-.35.6-.434.958a4.32 4.32 0 00-.1.587c-.018.18-.019.349-.002.505.016.16.048.313.096.46.05.151.119.305.206.46a.51.51 0 01.053.143.287.287 0 01.003.142zm.391 6.278a2.469 2.469 0 00-.218.77 1.53 1.53 0 00.058.636c.064.19.166.356.304.497.139.14.309.256.51.345.402.18.77.183 1.105.012.332-.167.62-.523.862-1.067l.42-.943-2.631-1.171-.41.92zm-5.844 1.944l.593-1.332c.113-.253.293-.391.54-.417l3.28-.537a.634.634 0 00.296-.117.776.776 0 00.206-.303l.281-.63-3.097-1.379.656-1.474 7.926 3.528-1.076 2.418c-.239.537-.5.972-.784 1.305-.283.339-.579.586-.888.741a1.994 1.994 0 01-.968.226 2.568 2.568 0 01-.999-.234 2.564 2.564 0 01-.703-.458 2.412 2.412 0 01-.761-1.403 2.954 2.954 0 01-.016-.893 1.53 1.53 0 01-.314.175 1.43 1.43 0 01-.361.102l-3.811.681zm-1.929 10.683c-.517-.37-.935-.8-1.254-1.29a4.117 4.117 0 01-.624-1.54 4.084 4.084 0 01.051-1.667 4.727 4.727 0 01.78-1.656c.382-.533.82-.955 1.313-1.266a4.15 4.15 0 011.567-.59 4.194 4.194 0 011.662.09 4.84 4.84 0 011.624.773c.517.37.933.799 1.249 1.285.318.49.527 1.005.625 1.548a4.086 4.086 0 01-.059 1.67 4.65 4.65 0 01-.772 1.654 4.759 4.759 0 01-.85.919 4.192 4.192 0 01-.973.617c-.338.156-.691.26-1.058.312a4.003 4.003 0 01-1.106.02 4.285 4.285 0 01-1.106-.29 4.982 4.982 0 01-1.069-.59zm.96-1.342a3.97 3.97 0 001.152.588c.383.118.751.157 1.103.119.352-.038.684-.155.996-.35.309-.191.587-.46.834-.804.247-.345.413-.696.497-1.054.082-.355.085-.706.01-1.055a2.744 2.744 0 00-.467-1.007 3.95 3.95 0 00-.927-.9 4.004 4.004 0 00-1.156-.591 2.748 2.748 0 00-1.098-.116 2.436 2.436 0 00-.991.353 2.985 2.985 0 00-.838.81 2.94 2.94 0 00-.493 1.049c-.085.358-.09.708-.016 1.052.078.345.232.68.463 1.002.234.326.545.627.932.904zm-8.76 4.938l-.924-.959 3.658-3.527 6.022 6.245-1.162 1.12-5.097-5.286-2.497 2.407zm-5.412 4.057l-.78-1.08 4.121-2.975 5.079 7.035-1.31.945-4.297-5.955-2.813 2.03zm-10.792 8.365a4.695 4.695 0 01-.337-1.749 4.027 4.027 0 01.337-1.604c.219-.497.542-.942.968-1.335a4.892 4.892 0 011.563-.948l3.082-1.196 3.14 8.088-3.083 1.196a4.804 4.804 0 01-1.795.35 4.013 4.013 0 01-1.615-.332 3.976 3.976 0 01-1.329-.952c-.39-.419-.7-.926-.93-1.518zm1.545-.6c.172.444.386.818.641 1.122.253.31.539.542.856.698.316.16.657.245 1.025.252.364.009.744-.063 1.139-.217l1.572-.61-2.21-5.694-1.572.61a2.95 2.95 0 00-.987.608 2.375 2.375 0 00-.588.872 2.63 2.63 0 00-.162 1.093c.018.4.113.823.286 1.266zm-12.186 2.634a4.831 4.831 0 01.042-1.798 4.11 4.11 0 01.662-1.524c.32-.45.728-.827 1.227-1.131a4.73 4.73 0 011.728-.603 4.736 4.736 0 011.824.051 4.154 4.154 0 011.518.706 4.2 4.2 0 011.099 1.25c.293.505.488 1.072.586 1.7a4.786 4.786 0 01-.044 1.792 4.176 4.176 0 01-.667 1.53 4.072 4.072 0 01-1.234 1.127 4.63 4.63 0 01-1.721.607 4.77 4.77 0 01-1.251.037 4.239 4.239 0 01-1.122-.263 3.758 3.758 0 01-.964-.537 4.019 4.019 0 01-.788-.776 4.3 4.3 0 01-.567-.993 4.976 4.976 0 01-.328-1.175zm1.63-.254c.073.471.202.882.386 1.234.185.356.414.646.688.871.273.224.589.38.946.466.354.087.74.098 1.159.033a2.976 2.976 0 001.1-.384c.31-.19.564-.433.761-.731a2.74 2.74 0 00.391-1.038 3.957 3.957 0 00-.006-1.293 4.01 4.01 0 00-.387-1.239 2.752 2.752 0 00-.687-.865 2.424 2.424 0 00-.945-.46 2.97 2.97 0 00-1.165-.032 2.937 2.937 0 00-1.094.382 2.375 2.375 0 00-.762.726 2.748 2.748 0 00-.392 1.032c-.068.395-.066.828.007 1.298zm-16.753 3.84l3.484-8.39 1.452.134 1.34 6.078c.039.148.07.328.095.539.033-.097.066-.188.098-.274a3.2 3.2 0 01.1-.238l2.454-5.725 1.458.135 1.874 8.887-1.344-.124a.571.571 0 01-.337-.134.46.46 0 01-.167-.281l-.99-5.304a6.922 6.922 0 01-.05-.427c-.019-.15-.036-.308-.053-.474a9.644 9.644 0 01-.145.462 6.512 6.512 0 01-.164.401l-2.176 5.01a.573.573 0 01-.209.234.54.54 0 01-.357.081l-.472-.044a.543.543 0 01-.504-.414l-1.211-5.325a7.445 7.445 0 01-.148-.875c-.08.31-.165.589-.252.838l-1.95 5.032a.454.454 0 01-.203.24.597.597 0 01-.362.075l-1.26-.117zm-9.67-3.166l2.802-8.211.784.267a.78.78 0 01.287.162c.066.068.12.163.163.283l2.42 6.938a8.1 8.1 0 01.202-.705l1.72-5.042 1.346.459-2.802 8.211-.8-.273a1.083 1.083 0 01-.161-.068.319.319 0 01-.114-.076.339.339 0 01-.082-.111 1.045 1.045 0 01-.071-.164l-2.429-6.965c-.034.136-.069.27-.105.401a6.628 6.628 0 01-.11.362l-1.704 4.991-1.346-.459zm-10.266-7.543a.571.571 0 01.232-.068.336.336 0 01.195.064.54.54 0 01.18.227c.045.107.103.229.174.368.072.138.168.283.288.435.115.152.275.297.482.434.187.124.366.209.537.255.169.049.328.066.477.05a.899.899 0 00.403-.151c.12-.079.223-.185.312-.319a.775.775 0 00.141-.518 1.467 1.467 0 00-.188-.542 4.252 4.252 0 00-.393-.569c-.158-.196-.317-.4-.479-.613a6.192 6.192 0 01-.45-.657 2.452 2.452 0 01-.296-.715 1.889 1.889 0 01-.024-.779c.042-.274.163-.561.362-.861.216-.327.476-.596.78-.808.297-.21.625-.35.983-.42a2.797 2.797 0 011.117.02c.39.085.784.26 1.185.525.23.152.441.326.633.52a4.2 4.2 0 01.52.618c.148.218.274.445.376.681.103.236.177.472.222.708l-.822.384a.473.473 0 01-.207.029.377.377 0 01-.203-.063.563.563 0 01-.2-.284 10.63 10.63 0 00-.197-.453 3.44 3.44 0 00-.312-.539 2.231 2.231 0 00-.58-.527c-.383-.254-.74-.36-1.069-.32-.331.044-.61.237-.835.577a.861.861 0 00-.163.561c.014.182.073.365.176.549.102.187.234.375.396.564.163.19.326.386.488.59.163.203.313.418.451.644.139.226.236.466.294.72.057.254.06.524.009.812-.057.288-.195.598-.413.928a2.409 2.409 0 01-.666.668 2.431 2.431 0 01-.9.36 2.681 2.681 0 01-1.049-.025 3.282 3.282 0 01-1.126-.494 4.05 4.05 0 01-1.048-.982 3.198 3.198 0 01-.55-1.17l.756-.414zm-3.38-9.522a.322.322 0 01-.102-.234l.004-.938c.554-.08 1.1-.03 1.636.152.532.18 1.063.514 1.59 1.004.471.438.821.914 1.05 1.426.225.51.337 1.032.337 1.567 0 .535-.114 1.069-.341 1.6-.23.53-.564 1.03-1.003 1.502a4.943 4.943 0 01-1.446 1.097c-.523.256-1.055.4-1.598.431a3.955 3.955 0 01-1.613-.255 4.457 4.457 0 01-1.5-.943c-.462-.43-.802-.888-1.017-1.373a4.002 4.002 0 01-.363-1.451l.906-.182a.47.47 0 01.178-.006.33.33 0 01.186.1c.044.04.079.094.104.16.022.07.045.15.068.236.02.09.046.19.079.303a2.563 2.563 0 00.397.762c.101.144.236.293.402.448.285.265.593.456.926.574.327.118.665.16 1.015.124a2.73 2.73 0 001.049-.335c.35-.188.69-.46 1.019-.814.332-.357.578-.721.737-1.092.156-.374.236-.736.24-1.087a2.43 2.43 0 00-.201-1.008 2.61 2.61 0 00-.617-.852 4.423 4.423 0 00-.46-.378 2.464 2.464 0 00-.438-.251 2.177 2.177 0 00-.447-.145 2.741 2.741 0 00-.502-.05.492.492 0 01-.15-.025.284.284 0 01-.125-.067zm-5.566-2.647a2.47 2.47 0 00-.565-.568 1.527 1.527 0 00-.583-.261 1.276 1.276 0 00-.582.022c-.19.052-.374.144-.55.275-.354.263-.538.582-.553.957-.017.372.152.797.508 1.275l.616.828 2.31-1.72-.601-.808zm1.17-6.046l.87 1.169c.164.221.197.446.098.675l-1.14 3.122a.63.63 0 00-.041.315c.012.09.066.2.162.328l.412.554 2.719-2.024.964 1.294-6.96 5.18-1.58-2.122c-.351-.472-.602-.913-.753-1.324-.157-.412-.228-.79-.211-1.137.014-.35.106-.668.277-.954.167-.284.399-.536.694-.756.234-.174.482-.304.743-.389a2.431 2.431 0 011.596.024c.27.094.531.235.787.424a1.495 1.495 0 01.001-.36c.012-.118.04-.24.088-.364l1.273-3.655zm-8.354-6.893a4.832 4.832 0 011.737-.462c.578-.04 1.127.03 1.648.21.522.18.998.467 1.43.862.428.395.782.892 1.061 1.49.278.594.432 1.183.461 1.765a4.147 4.147 0 01-.253 1.655 4.19 4.19 0 01-.893 1.404 4.832 4.832 0 01-1.468 1.038 4.785 4.785 0 01-1.733.46 4.18 4.18 0 01-1.656-.213 4.077 4.077 0 01-1.427-.87 4.64 4.64 0 01-1.064-1.482 4.783 4.783 0 01-.385-1.192 4.21 4.21 0 01-.06-1.15c.029-.371.11-.73.245-1.075.129-.348.304-.672.525-.974.22-.302.485-.576.794-.822.307-.25.653-.465 1.037-.644zm.698 1.495a3.94 3.94 0 00-1.076.715 2.74 2.74 0 00-.644.904c-.14.325-.2.672-.183 1.039.016.364.113.738.293 1.122.18.384.404.7.675.949.27.245.575.42.915.526.34.102.708.13 1.107.085a3.955 3.955 0 001.239-.367 4.03 4.03 0 001.081-.718c.287-.275.5-.576.639-.901.134-.328.193-.673.177-1.037a2.985 2.985 0 00-.295-1.127 2.94 2.94 0 00-.673-.944 2.364 2.364 0 00-.91-.528 2.75 2.75 0 00-1.1-.088 4.01 4.01 0 00-1.245.37zm.018-10l1.29-.334 1.273 4.92-8.4 2.174-.404-1.563 7.11-1.84-.869-3.357zm-.868-6.749l1.324-.143.548 5.052-8.626.935-.173-1.605 7.3-.79-.373-3.449zM10.85 49.125a4.71 4.71 0 011.685.577c.495.29.903.652 1.225 1.09.322.437.548.938.677 1.504a4.89 4.89 0 01.045 1.827l-.495 3.269-8.578-1.298.494-3.27a4.812 4.812 0 01.59-1.73 4 4 0 011.091-1.237c.433-.323.929-.55 1.487-.68a4.693 4.693 0 011.78-.052zm-.247 1.638a3.955 3.955 0 00-1.293-.002 2.565 2.565 0 00-1.03.397c-.297.194-.54.448-.729.763a2.94 2.94 0 00-.378 1.096l-.252 1.667 6.039.914.252-1.667a2.94 2.94 0 00-.037-1.159 2.366 2.366 0 00-.464-.944 2.63 2.63 0 00-.867-.683 4.01 4.01 0 00-1.241-.382zm3.65-11.687a4.832 4.832 0 011.542.925c.43.387.763.83.997 1.329.234.5.36 1.041.378 1.626a4.73 4.73 0 01-.33 1.8 4.713 4.713 0 01-.945 1.56 4.15 4.15 0 01-1.364.971 4.193 4.193 0 01-1.63.338 4.834 4.834 0 01-1.767-.33 4.785 4.785 0 01-1.536-.924 4.18 4.18 0 01-1.002-1.336 4.076 4.076 0 01-.37-1.63 4.64 4.64 0 01.323-1.796c.156-.411.352-.78.586-1.106.232-.327.493-.609.783-.845.287-.238.602-.429.943-.573.339-.15.694-.25 1.064-.302.37-.052.752-.053 1.143-.002.394.046.788.145 1.185.295zm-.586 1.543a3.953 3.953 0 00-1.263-.274 2.74 2.74 0 00-1.097.168 2.33 2.33 0 00-.873.592 2.94 2.94 0 00-.6.992c-.15.396-.221.778-.21 1.145a2.4 2.4 0 00.26 1.023c.162.315.399.599.709.853.306.254.681.465 1.126.633.445.17.868.261 1.269.277a2.75 2.75 0 001.091-.17 2.42 2.42 0 00.868-.595c.251-.268.452-.6.603-.997.15-.396.22-.777.208-1.14a2.367 2.367 0 00-.254-1.021 2.75 2.75 0 00-.704-.851 4.01 4.01 0 00-1.133-.635zm4.895-16.435l5.564 7.182-.836 1.195-5.944-1.846a4.049 4.049 0 01-.515-.185c.068.077.131.15.19.221.058.07.11.138.156.205l3.76 4.967-.84 1.2-8.65-2.773.775-1.106a.57.57 0 01.283-.227.46.46 0 01.326-.006l5.099 1.767c.123.047.255.103.395.167.14.059.286.122.439.19a9.726 9.726 0 01-.33-.355 6.497 6.497 0 01-.267-.341l-3.275-4.372a.576.576 0 01-.1-.297.543.543 0 01.106-.35l.272-.389a.543.543 0 01.61-.232l5.225 1.584c.252.074.53.175.834.306-.23-.224-.43-.436-.603-.635l-3.406-4.185a.452.452 0 01-.108-.296.59.59 0 01.114-.351l.726-1.038zm7.451-6.829l5.768 6.48-.618.551a.782.782 0 01-.282.17.803.803 0 01-.328.003l-7.229-1.31c.193.182.365.357.513.524l3.543 3.98-1.063.945-5.768-6.48.632-.563c.051-.046.097-.081.138-.107a.321.321 0 01.123-.06.342.342 0 01.137-.018c.048 0 .107.006.177.018l7.259 1.316a15.585 15.585 0 01-.298-.29 6.564 6.564 0 01-.26-.274l-3.506-3.94 1.062-.945zm11.42-5.187a.572.572 0 01-.054.237.341.341 0 01-.151.138.546.546 0 01-.287.046 5.27 5.27 0 00-.405-.028 2.71 2.71 0 00-.52.038 1.92 1.92 0 00-.615.208c-.2.102-.361.217-.485.343a1.229 1.229 0 00-.277.393.907.907 0 00-.066.424c.01.143.053.286.126.428.093.182.22.307.382.377.166.068.354.102.565.101a4.2 4.2 0 00.689-.064c.248-.042.504-.081.769-.118a6.18 6.18 0 01.793-.07c.265-.01.521.02.769.09.245.068.476.188.69.36.219.172.41.418.575.738.179.348.287.707.323 1.075.038.363 0 .718-.115 1.064-.112.341-.3.662-.564.964a3.522 3.522 0 01-1.038.776c-.245.126-.5.226-.764.298a4.21 4.21 0 01-.793.151 4.124 4.124 0 01-.778-.005 3.335 3.335 0 01-.726-.153l.068-.905a.474.474 0 01.076-.194.378.378 0 01.154-.147.564.564 0 01.346-.036c.14.019.303.036.491.051.188.016.396.013.623-.009a2.25 2.25 0 00.743-.247c.41-.21.676-.469.802-.776.123-.311.092-.648-.094-1.01a.862.862 0 00-.41-.418 1.318 1.318 0 00-.565-.114 3.249 3.249 0 00-.686.069c-.245.05-.495.095-.753.137a6.295 6.295 0 01-.782.078 2.368 2.368 0 01-.771-.096 2.035 2.035 0 01-.713-.39c-.224-.19-.427-.462-.607-.814a2.396 2.396 0 01-.257-.907 2.424 2.424 0 01.126-.962c.108-.316.286-.617.535-.902a3.26 3.26 0 01.982-.74 4.05 4.05 0 011.37-.434 3.199 3.199 0 011.289.093l-.01.862zm9.944 1.685a.322.322 0 01.254.026l.816.463a3.488 3.488 0 01-.934 1.351c-.417.377-.968.676-1.654.896-.613.196-1.2.268-1.758.216a3.836 3.836 0 01-1.531-.473 4.056 4.056 0 01-1.228-1.08 5.32 5.32 0 01-.818-1.61 4.937 4.937 0 01-.249-1.798 4.133 4.133 0 01.406-1.604 3.97 3.97 0 011.013-1.283 4.47 4.47 0 011.556-.845c.602-.193 1.167-.264 1.696-.215a4 4 0 011.443.394l-.286.88a.472.472 0 01-.081.158.335.335 0 01-.178.113.415.415 0 01-.192.011 4.855 4.855 0 01-.238-.055 5.276 5.276 0 00-.303-.08 2.014 2.014 0 00-.38-.048 2.473 2.473 0 00-.48.021c-.174.018-.37.062-.587.132-.37.118-.687.293-.953.525a2.274 2.274 0 00-.605.825 2.729 2.729 0 00-.222 1.079c-.007.397.063.826.21 1.287.15.464.347.857.592 1.177.25.32.526.567.83.742.305.176.63.282.978.317a2.61 2.61 0 001.045-.12c.21-.067.394-.14.554-.216.165-.078.31-.164.434-.258.13-.096.244-.203.346-.319.103-.121.2-.26.289-.414a.494.494 0 01.094-.118.284.284 0 01.12-.077zm5.246-3.607a2.47 2.47 0 00.772-.21c.217-.104.388-.23.515-.379.13-.153.22-.326.269-.517.048-.191.06-.396.032-.615-.054-.436-.24-.754-.56-.952-.314-.199-.767-.262-1.359-.188l-1.024.127.355 2.858 1-.124zm4.68 4.002l-1.447.18c-.274.034-.486-.049-.636-.248l-2.151-2.532a.63.63 0 00-.254-.193c-.085-.034-.207-.04-.365-.02l-.685.084.417 3.364-1.602.199-1.067-8.61 2.626-.326c.583-.072 1.091-.073 1.523-.001.436.067.8.193 1.093.378.297.185.528.422.693.712.164.286.27.612.315.977.035.29.026.57-.03.838a2.309 2.309 0 01-.282.748c-.132.23-.308.44-.526.628a2.963 2.963 0 01-.758.475c.11.046.215.106.313.179.097.068.188.154.273.256l2.55 2.912zm10.241-3.87a4.834 4.834 0 01-.46 1.738 4.116 4.116 0 01-.999 1.328c-.414.364-.9.635-1.456.815a4.731 4.731 0 01-1.821.183 4.713 4.713 0 01-1.762-.474 4.15 4.15 0 01-1.312-1.04 4.194 4.194 0 01-.777-1.471 4.832 4.832 0 01-.174-1.79 4.784 4.784 0 01.46-1.733c.255-.525.59-.97 1.005-1.333a4.076 4.076 0 011.462-.808 4.639 4.639 0 011.815-.19c.439.036.847.121 1.226.256a4.21 4.21 0 011.03.517c.307.21.578.458.811.746.238.284.434.597.587.939.152.341.26.707.32 1.097.064.39.08.797.045 1.22zm-1.644-.134a3.971 3.971 0 00-.088-1.289 2.742 2.742 0 00-.466-1.007 2.333 2.333 0 00-.813-.674 2.94 2.94 0 00-1.119-.301 2.985 2.985 0 00-1.16.116 2.4 2.4 0 00-.91.534c-.256.244-.463.55-.622.919a3.951 3.951 0 00-.294 1.258c-.039.475-.01.906.087 1.296.097.385.253.718.467 1 .218.28.489.502.812.668.328.168.703.268 1.126.303a2.94 2.94 0 001.153-.117c.35-.112.653-.289.91-.529a2.75 2.75 0 00.621-.912 4.01 4.01 0 00.296-1.265zm8.695 4.935l-.349 1.285-4.905-1.329 2.27-8.374 1.557.422-1.92 7.088 3.347.908zm6.492 2.649l-.533 1.22-4.658-2.031 3.47-7.953 1.479.646-2.937 6.731 3.179 1.387zm12.614 4.931c-.392.5-.836.894-1.331 1.182a4.023 4.023 0 01-1.552.529 3.998 3.998 0 01-1.642-.152 4.886 4.886 0 01-1.612-.862l-2.601-2.04 5.356-6.826 2.6 2.041c.52.408.925.863 1.217 1.366a4 4 0 01.538 1.56 3.96 3.96 0 01-.141 1.627 4.69 4.69 0 01-.832 1.575zM92.4 21.737c.293-.375.506-.75.638-1.124.137-.376.191-.74.163-1.093a2.333 2.333 0 00-.306-1.01 2.94 2.94 0 00-.767-.869l-1.326-1.04-3.771 4.804 1.326 1.041a2.94 2.94 0 001.027.539c.354.1.704.12 1.05.061a2.63 2.63 0 001.022-.418c.335-.22.65-.517.944-.891zm8.421 8.95a4.835 4.835 0 01-1.564.888 4.117 4.117 0 01-1.647.217 4.083 4.083 0 01-1.601-.47 4.729 4.729 0 01-1.406-1.172 4.712 4.712 0 01-.894-1.59 4.148 4.148 0 01-.177-1.664 4.192 4.192 0 01.507-1.586 4.85 4.85 0 011.156-1.377 4.783 4.783 0 011.56-.885 4.179 4.179 0 011.655-.215 4.076 4.076 0 011.601.478c.517.272.986.66 1.406 1.163.282.338.507.69.675 1.055.172.362.289.727.352 1.097.066.366.078.734.036 1.102a4.058 4.058 0 01-.26 1.076c-.137.348-.324.68-.56.997a4.92 4.92 0 01-.839.886zm-1.056-1.268c.366-.305.652-.626.859-.965.21-.342.341-.688.393-1.038.052-.35.023-.701-.087-1.052a2.94 2.94 0 00-.569-1.01 2.978 2.978 0 00-.895-.746 2.398 2.398 0 00-1.018-.276 2.74 2.74 0 00-1.092.198c-.37.143-.739.366-1.105.67a4.005 4.005 0 00-.863.97 2.75 2.75 0 00-.389 1.034c-.046.35-.015.7.092 1.048.11.35.301.69.573 1.015.27.326.568.573.89.741.326.172.664.265 1.014.28a2.73 2.73 0 001.088-.195c.373-.145.743-.37 1.109-.674zm11.927 12.291l-8.986 1.335-.633-1.313 4.52-4.28a4.11 4.11 0 01.413-.358l-.285.057c-.09.017-.175.029-.256.037l-6.171.846-.635-1.32 6.652-6.184.585 1.216a.57.57 0 01.059.358.455.455 0 01-.155.288l-4.036 3.58a7.02 7.02 0 01-.339.264c-.12.093-.247.19-.38.29a9.65 9.65 0 01.471-.115 6.63 6.63 0 01.428-.066l5.415-.715a.577.577 0 01.308.058c.11.054.194.142.253.265l.206.427c.061.126.08.243.056.352a.616.616 0 01-.152.293l-3.94 3.78a7.554 7.554 0 01-.674.578c.307-.09.59-.162.849-.215l5.316-.92a.455.455 0 01.311.05.59.59 0 01.251.272l.549 1.14zm2.315 9.992l-8.483 1.82-.173-.81a.79.79 0 01-.01-.329.814.814 0 01.16-.285l4.705-5.643a8.137 8.137 0 01-.708.189l-5.21 1.117-.298-1.39 8.483-1.82.177.827a.98.98 0 01.025.173.32.32 0 01-.007.136.35.35 0 01-.053.128c-.024.042-.058.09-.104.145l-4.724 5.666c.134-.042.267-.08.398-.117.132-.036.254-.066.367-.09l5.157-1.107.298 1.39z" fill="#1A1A1A" fill-opacity=".2"/></svg>